<svg width="100" height="45" viewBox="0 0 100 45" fill="none" xmlns="http://www.w3.org/2000/svg">
<g clip-path="url(#clip0_4001_38)">
<path d="M0 7.89474C0 3.5346 3.53459 0 7.89474 0H92.1053C96.4654 0 100 3.53459 100 7.89474V22.3684H0V7.89474Z" fill="#DF0000"/>
<path d="M71.4768 3.73685H74.1189L79.4662 17.6316H76.6662L75.582 14.6316H70.0241L68.9189 17.6316H66.1083L71.4768 3.73685ZM70.8873 12.3053H74.7189L72.8136 6.9158H72.782L70.8873 12.3053ZM82.7435 12.6316L77.9962 3.73685H81.1856L84.0488 9.61054L86.9225 3.73685H90.0909L85.3751 12.6316V17.6316H82.7435V12.6316Z" fill="white"/>
<path d="M38.8963 3.48422C39.7314 3.48422 40.4577 3.57896 41.0753 3.76843C41.6998 3.95089 42.1946 4.14738 42.5595 4.35791C42.9314 4.56843 43.156 4.70528 43.2332 4.76843L41.949 6.90528C41.8367 6.81405 41.6437 6.68773 41.37 6.52633C41.1034 6.35791 40.7805 6.21054 40.4016 6.08422C40.0227 5.95089 39.6121 5.88422 39.17 5.88422C38.5314 5.88422 38.0191 6.00703 37.6332 6.25264C37.2542 6.49124 37.0648 6.83861 37.0648 7.29475C37.0648 7.60352 37.1665 7.88071 37.37 8.12633C37.5735 8.36492 37.8718 8.58949 38.2648 8.80001C38.6648 9.01054 39.1525 9.23159 39.7279 9.46317C40.2332 9.65966 40.7139 9.88773 41.17 10.1474C41.6332 10.407 42.0437 10.7123 42.4016 11.0632C42.7665 11.414 43.0542 11.8211 43.2648 12.2842C43.4823 12.7474 43.5911 13.2772 43.5911 13.8737C43.5911 14.5404 43.4542 15.1228 43.1805 15.6211C42.9139 16.1193 42.542 16.5369 42.0648 16.8737C41.5946 17.2105 41.0542 17.4632 40.4437 17.6316C39.8332 17.8 39.1911 17.8842 38.5174 17.8842C37.6051 17.8842 36.7841 17.779 36.0542 17.5684C35.3314 17.3509 34.7455 17.1193 34.2963 16.8737C33.8472 16.6281 33.5841 16.4702 33.5069 16.4L34.8542 14.179C34.9384 14.2421 35.0963 14.3439 35.3279 14.4842C35.5665 14.6246 35.8542 14.7684 36.1911 14.9158C36.5349 15.0632 36.9069 15.1895 37.3069 15.2947C37.7139 15.4 38.1279 15.4526 38.549 15.4526C39.3069 15.4526 39.8788 15.2947 40.2648 14.979C40.6507 14.6632 40.8437 14.2526 40.8437 13.7474C40.8437 13.3684 40.7209 13.0351 40.4753 12.7474C40.2297 12.4597 39.8823 12.1965 39.4332 11.9579C38.9911 11.7123 38.4613 11.4632 37.8437 11.2105C37.2262 10.9509 36.6507 10.6491 36.1174 10.3053C35.5911 9.9544 35.1665 9.52633 34.8437 9.02107C34.5209 8.50878 34.3595 7.88071 34.3595 7.13685C34.3595 6.40001 34.5665 5.75791 34.9805 5.21054C35.4016 4.66317 35.956 4.23861 36.6437 3.93685C37.3384 3.6351 38.0893 3.48422 38.8963 3.48422Z" fill="white"/>
<path d="M67.7454 8.04956H60.3645V32.6326H54.7717V8.04956H47.3684V3.1062H67.7454V8.04956Z" fill="white"/>
<g clip-path="url(#clip1_4001_38)">
<path d="M12.335 13.3409L12.3496 13.3566C13.1036 14.1458 13.9052 14.8938 14.6621 15.5978H14.6611C15.1497 16.0474 15.6076 16.4806 16.0508 16.9171L17.8994 18.7394L20.2217 16.3829L20.8145 15.7911C21.0226 15.5853 21.2405 15.371 21.4658 15.1505L22.3564 14.2784C22.6598 13.979 22.9676 13.6714 23.2715 13.3566L23.2861 13.3409H24.7852L24.708 13.4249L24.6611 13.4767C24.2538 13.9065 23.8347 14.3328 23.4219 14.7462L22.2178 15.9396L20.9844 17.1593L18.2891 19.8917C18.1888 19.9913 18.0543 20.0479 17.9141 20.048C17.7737 20.048 17.6385 19.9914 17.5381 19.8917V19.8907L15.3076 17.7052H15.3066C15.1036 17.5059 14.8842 17.2963 14.6543 17.0792L13.9375 16.4083C12.9515 15.4883 11.8869 14.4961 10.9346 13.424L10.8604 13.3409H12.335ZM17.8105 7.72668L19.791 11.6281L20.6963 10.6808L20.7109 10.6652H27.7275V11.7638H21.1641L19.5742 13.4318L19.5254 13.4835L19.4932 13.42L17.7861 10.0665L16.084 13.5978L16.0459 13.6759L15.9971 13.6036L14.0879 10.7618L13.5684 11.6212L13.5537 11.6456H8.27539V10.547H12.9512L13.9922 8.82532L14.0332 8.75793L14.0762 8.82336L15.8916 11.5148L17.7207 7.72766L17.7646 7.63684L17.8105 7.72668ZM22.2666 1.95618C23.2035 1.92021 24.1367 2.12864 24.9766 2.56458H24.9756C25.7823 2.97562 26.4832 3.57466 27.0215 4.3136L27.2158 4.59778C27.5862 5.17833 27.8413 5.82765 27.9658 6.50891L28.0176 6.85168L28.041 7.13391C28.0781 7.79246 27.9888 8.45307 27.7773 9.07825L27.7656 9.11243H26.6162L26.6455 9.04309C26.921 8.39318 27.0264 7.68091 26.9512 6.97668L26.9092 6.70422C26.8091 6.16468 26.6067 5.65054 26.3135 5.19055L26.1592 4.96497C25.7753 4.44028 25.2918 4.00178 24.7383 3.6759L24.4971 3.54309C23.7223 3.14148 22.8496 2.97861 21.9863 3.07532L21.9873 3.07629C20.6509 3.23291 19.8644 3.92302 19.0195 4.8175L18.6523 5.21204L18.291 5.60168L18.29 5.60266C18.1908 5.70588 18.0551 5.76466 17.9131 5.76672C17.8064 5.76824 17.7026 5.73777 17.6143 5.67981L17.5322 5.6134L17.1816 5.26379C16.0338 4.10884 15.1624 3.23001 13.5059 3.10852L13.1641 3.09485H12.9277L12.7383 3.10364C11.795 3.1695 10.8979 3.55731 10.1934 4.20813C9.82274 4.56536 9.52793 4.9969 9.32715 5.47571C9.12623 5.95498 9.02368 6.47178 9.02637 6.99329V7.22668C9.05318 7.84876 9.1768 8.46243 9.3916 9.04504L9.41602 9.11243H8.27734L8.2666 9.07727C8.08118 8.48921 7.97469 7.87819 7.9502 7.26086V6.97864L7.95508 6.72864C7.9825 6.14583 8.11316 5.57229 8.33984 5.03528C8.59897 4.42149 8.97861 3.86824 9.45605 3.41125H9.45703L9.63672 3.2511C10.5509 2.47337 11.6977 2.03179 12.8916 2.00403H13.1768L13.5957 2.02161C14.5421 2.08954 15.268 2.34586 15.9053 2.73352C16.6174 3.16681 17.218 3.76407 17.8916 4.44055C19.0131 3.22294 19.9554 2.21214 21.8643 1.98645H21.8652L22.2666 1.95618Z" fill="white" stroke="white" stroke-width="0.1"/>
</g>
</g>
<g clip-path="url(#clip2_4001_38)">
<path d="M0 22.3684H100V36.5237C100 40.8838 96.4654 44.4184 92.1053 44.4184H7.89474C3.53459 44.4184 0 40.8838 0 36.5237V22.3684Z" fill="#0059FF" fill-opacity="0.92"/>
<path d="M76.4435 34.1895H70.9277V40H68.3171V26.1053H70.9277V31.8737H76.4435V26.1053H79.054V40H76.4435V34.1895ZM85.1453 35L80.3979 26.1053H83.5874L86.4505 31.9789L89.3242 26.1053H92.4926L87.7769 35V40H85.1453V35Z" fill="white"/>
<path d="M13.1734 34.1895H7.65758V40H5.04706V26.1053H7.65758V31.8737H13.1734V26.1053H15.7839V40H13.1734V34.1895ZM18.3489 26.1053H26.9699V28.4316H20.9594V31.9053H26.8857V34.1579H20.9594V37.6737H26.9699V40H18.3489V26.1053ZM33.5114 26.1053H36.1535L41.5008 40H38.7008L37.6166 37H32.0587L30.9535 40H28.1429L33.5114 26.1053ZM32.9219 34.6737H36.7535L34.8482 29.2842H34.8166L32.9219 34.6737ZM42.8153 26.1053H45.4469V37.6737H50.6574V40H42.8153V26.1053Z" fill="white"/>
<path d="M67.7454 17.2601H60.3645V41.8431H54.7717V17.2601H47.3684V12.3167H67.7454V17.2601Z" fill="white"/>
</g>
<defs>
<clipPath id="clip0_4001_38">
<path d="M0 7.89474C0 3.5346 3.53459 0 7.89474 0H92.1053C96.4654 0 100 3.53459 100 7.89474V22.3684H0V7.89474Z" fill="white"/>
</clipPath>
<clipPath id="clip1_4001_38">
<rect width="20" height="18" fill="white" transform="translate(8 2)"/>
</clipPath>
<clipPath id="clip2_4001_38">
<path d="M0 22.3684H100V36.5237C100 40.8838 96.4654 44.4184 92.1053 44.4184H7.89474C3.53459 44.4184 0 40.8838 0 36.5237V22.3684Z" fill="white"/>
</clipPath>
</defs>
</svg>
