<svg width="100" height="45" viewBox="0 0 100 45" fill="none" xmlns="http://www.w3.org/2000/svg">
<g clip-path="url(#clip0_4001_38)">
<path d="M0 7.89474C0 3.5346 3.53459 0 7.89474 0H92.1053C96.4654 0 100 3.53459 100 7.89474V22.3684H0V7.89474Z" fill="#DF0000"/>
<path d="M71.4768 3.73685H74.1189L79.4662 17.6316H76.6662L75.582 14.6316H70.0241L68.9189 17.6316H66.1083L71.4768 3.73685ZM70.8873 12.3053H74.7189L72.8136 6.9158H72.782L70.8873 12.3053ZM82.7435 12.6316L77.9962 3.73685H81.1856L84.0488 9.61054L86.9225 3.73685H90.0909L85.3751 12.6316V17.6316H82.7435V12.6316Z" fill="white"/>
<path d="M38.8963 3.48422C39.7314 3.48422 40.4577 3.57896 41.0753 3.76843C41.6998 3.95089 42.1946 4.14738 42.5595 4.35791C42.9314 4.56843 43.156 4.70528 43.2332 4.76843L41.949 6.90528C41.8367 6.81405 41.6437 6.68773 41.37 6.52633C41.1034 6.35791 40.7805 6.21054 40.4016 6.08422C40.0227 5.95089 39.6121 5.88422 39.17 5.88422C38.5314 5.88422 38.0191 6.00703 37.6332 6.25264C37.2542 6.49124 37.0648 6.83861 37.0648 7.29475C37.0648 7.60352 37.1665 7.88071 37.37 8.12633C37.5735 8.36492 37.8718 8.58949 38.2648 8.80001C38.6648 9.01054 39.1525 9.23159 39.7279 9.46317C40.2332 9.65966 40.7139 9.88773 41.17 10.1474C41.6332 10.407 42.0437 10.7123 42.4016 11.0632C42.7665 11.414 43.0542 11.8211 43.2648 12.2842C43.4823 12.7474 43.5911 13.2772 43.5911 13.8737C43.5911 14.5404 43.4542 15.1228 43.1805 15.6211C42.9139 16.1193 42.542 16.5369 42.0648 16.8737C41.5946 17.2105 41.0542 17.4632 40.4437 17.6316C39.8332 17.8 39.1911 17.8842 38.5174 17.8842C37.6051 17.8842 36.7841 17.779 36.0542 17.5684C35.3314 17.3509 34.7455 17.1193 34.2963 16.8737C33.8472 16.6281 33.5841 16.4702 33.5069 16.4L34.8542 14.179C34.9384 14.2421 35.0963 14.3439 35.3279 14.4842C35.5665 14.6246 35.8542 14.7684 36.1911 14.9158C36.5349 15.0632 36.9069 15.1895 37.3069 15.2947C37.7139 15.4 38.1279 15.4526 38.549 15.4526C39.3069 15.4526 39.8788 15.2947 40.2648 14.979C40.6507 14.6632 40.8437 14.2526 40.8437 13.7474C40.8437 13.3684 40.7209 13.0351 40.4753 12.7474C40.2297 12.4597 39.8823 12.1965 39.4332 11.9579C38.9911 11.7123 38.4613 11.4632 37.8437 11.2105C37.2262 10.9509 36.6507 10.6491 36.1174 10.3053C35.5911 9.9544 35.1665 9.52633 34.8437 9.02107C34.5209 8.50878 34.3595 7.88071 34.3595 7.13685C34.3595 6.40001 34.5665 5.75791 34.9805 5.21054C35.4016 4.66317 35.956 4.23861 36.6437 3.93685C37.3384 3.6351 38.0893 3.48422 38.8963 3.48422Z" fill="white"/>
<path d="M67.7454 8.04956H60.3645V32.6326H54.7717V8.04956H47.3684V3.1062H67.7454V8.04956Z" fill="white"/>
</g>
<g clip-path="url(#clip1_4001_38)">
<path d="M0 22.3684H100V36.5237C100 40.8838 96.4654 44.4184 92.1053 44.4184H7.89474C3.53459 44.4184 0 40.8838 0 36.5237V22.3684Z" fill="#0059FF" fill-opacity="0.92"/>
<path d="M76.4435 34.1895H70.9277V40H68.3171V26.1053H70.9277V31.8737H76.4435V26.1053H79.054V40H76.4435V34.1895ZM85.1453 35L80.3979 26.1053H83.5874L86.4505 31.9789L89.3242 26.1053H92.4926L87.7769 35V40H85.1453V35Z" fill="white"/>
<path d="M13.1734 34.1895H7.65758V40H5.04706V26.1053H7.65758V31.8737H13.1734V26.1053H15.7839V40H13.1734V34.1895ZM18.3489 26.1053H26.9699V28.4316H20.9594V31.9053H26.8857V34.1579H20.9594V37.6737H26.9699V40H18.3489V26.1053ZM33.5114 26.1053H36.1535L41.5008 40H38.7008L37.6166 37H32.0587L30.9535 40H28.1429L33.5114 26.1053ZM32.9219 34.6737H36.7535L34.8482 29.2842H34.8166L32.9219 34.6737ZM42.8153 26.1053H45.4469V37.6737H50.6574V40H42.8153V26.1053Z" fill="white"/>
<path d="M67.7454 17.2601H60.3645V41.8431H54.7717V17.2601H47.3684V12.3167H67.7454V17.2601Z" fill="white"/>
</g>
<defs>
<clipPath id="clip0_4001_38">
<path d="M0 7.89474C0 3.5346 3.53459 0 7.89474 0H92.1053C96.4654 0 100 3.53459 100 7.89474V22.3684H0V7.89474Z" fill="white"/>
</clipPath>
<clipPath id="clip1_4001_38">
<path d="M0 22.3684H100V36.5237C100 40.8838 96.4654 44.4184 92.1053 44.4184H7.89474C3.53459 44.4184 0 40.8838 0 36.5237V22.3684Z" fill="white"/>
</clipPath>
</defs>
</svg>
